<svg xmlns="http://www.w3.org/2000/svg" xmlns:xlink="http://www.w3.org/1999/xlink" viewBox="0 0 16 19">
  <defs/>
  <defs>
    <path id="a" d="M8 15.786c3.023 0 6.057-.543 7.714-1.708v1.708c0 1.416-3.455 2.571-7.714 2.571S.286 17.202.286 15.786v-1.708c1.657 1.165 4.69 1.708 7.714 1.708zM8 23.5c3.023 0 6.057-.542 7.714-1.708V23.5c0 1.416-3.455 2.571-7.714 2.571S.286 24.916.286 23.5v-1.708C1.943 22.958 4.976 23.5 8 23.5zm0-3.857c3.023 0 6.057-.543 7.714-1.708v1.708c0 1.416-3.455 2.571-7.714 2.571S.286 21.06.286 19.643v-1.708C1.943 19.1 4.976 19.643 8 19.643zM8 8.07c4.259 0 7.714 1.156 7.714 2.572v1.286c0 1.416-3.455 2.571-7.714 2.571S.286 13.345.286 11.929v-1.286C.286 9.227 3.74 8.07 8 8.07z"/>
  </defs>
  <g fill="none" fill-rule="evenodd" transform="translate(0 -8)">
    <use fill="#FFF" xlink:href="#a"/>
    <use fill="#040404" xlink:href="#a"/>
  </g>
</svg>
