<svg xmlns="http://www.w3.org/2000/svg" xmlns:xlink="http://www.w3.org/1999/xlink" viewBox="0 0 16 16">
  <defs/>
  <defs>
    <path id="a" d="M4.786 83.571c0-.713-.573-1.285-1.286-1.285-.713 0-1.286.572-1.286 1.285 0 .714.573 1.286 1.286 1.286.713 0 1.286-.572 1.286-1.286zm10.717 5.786c0 .342-.14.673-.371.904L10.2 95.203a1.337 1.337 0 01-.914.372c-.342 0-.673-.14-.904-.372L1.2 88.011c-.512-.502-.914-1.476-.914-2.19v-4.178c0-.703.582-1.286 1.285-1.286H5.75c.713 0 1.688.402 2.2.914l7.182 7.172c.23.241.371.573.371.914z"/>
  </defs>
  <g fill="none" fill-rule="evenodd" transform="translate(0 -80)">
    <use fill="#FFF" xlink:href="#a"/>
    <use fill="#040404" xlink:href="#a"/>
  </g>
</svg>
